<svg version="1.1" preserveAspectRatio="none" xmlns="http://www.w3.org/2000/svg" width="500" height="500" viewBox="0 0 500 500"><rect width="100%" height="100%" fill="#121212" fill-opacity="1"/><svg viewBox="82.4385 239.7147 371.271 109.6" width="417" height="123.09929943356738" x="41.5px" y="188.4504px" xmlns="http://www.w3.org/2000/svg" xmlns:xlink="http://www.w3.org/1999/xlink" preserveAspectRatio="none"><defs></defs><style>.companyName {fill:#F5F5F5;fill-opacity:1;}.icon1 {fill:#F15A5A;fill-opacity:1;}.icon2 {fill:#F5F5F5;fill-opacity:1;}.icon3-str {stroke:#676767;stroke-opacity:1;}.shapeStroke-str {stroke:#F5F5F5;stroke-opacity:1;}</style><g opacity="1" transform="rotate(0 82.4385 309.7147)">
<svg width="371.271" height="6" x="82.4385" y="309.7147" version="1.1" preserveAspectRatio="none" viewBox="0 0 371.271 6">
  <rect x="0" y="0" width="371.271" height="6" class="icon2 shapeStroke-str" style="stroke-width:0;" rx="4%" ry="4%" />
</svg>
</g><g opacity="1" transform="rotate(0 82.4385 327.7147)">
<svg width="190.4989" height="21.6" x="82.4385" y="327.7147" version="1.1" preserveAspectRatio="none" viewBox="2.08 -29.68 331.96000000000004 37.64">
  <g transform="matrix(1 0 0 1 0 0)" class="icon1"><path id="id-6izo4zJp16" d="M31.32 0.64L32.76 2.36Q31.48 3.92 29.74 4.74Q28 5.56 25.96 5.56L25.96 5.56Q23.48 5.56 21.26 4.34Q19.04 3.12 16.28 0.24L16.28 0.24Q12.24 0.12 9-1.76Q5.76-3.64 3.92-6.84Q2.08-10.04 2.08-14L2.08-14Q2.08-18.04 3.98-21.28Q5.88-24.52 9.26-26.38Q12.64-28.24 16.80-28.24L16.80-28.24Q20.96-28.24 24.30-26.40Q27.64-24.56 29.56-21.30Q31.48-18.04 31.48-14L31.48-14Q31.48-10.48 30.02-7.54Q28.56-4.60 25.94-2.64Q23.32-0.68 19.92-0.04L19.92-0.04Q23 3.20 26 3.20L26 3.20Q29.12 3.20 31.32 0.64L31.32 0.64ZM5-14Q5-10.72 6.54-8.08Q8.08-5.44 10.78-3.92Q13.48-2.40 16.80-2.40L16.80-2.40Q20.12-2.40 22.80-3.92Q25.48-5.44 27-8.08Q28.52-10.72 28.52-14L28.52-14Q28.52-17.28 27-19.92Q25.48-22.56 22.80-24.08Q20.12-25.60 16.80-25.60L16.80-25.60Q13.48-25.60 10.78-24.08Q8.08-22.56 6.54-19.92Q5-17.28 5-14L5-14Z M55.24-21.04L58.08-21.04L58.08 0L55.36 0L55.36-3.84Q54.24-1.92 52.28-0.86Q50.32 0.20 47.80 0.20L47.80 0.20Q43.68 0.20 41.30-2.10Q38.92-4.40 38.92-8.84L38.92-8.84L38.92-21.04L41.76-21.04L41.76-9.12Q41.76-5.80 43.40-4.08Q45.04-2.36 48.08-2.36L48.08-2.36Q51.40-2.36 53.32-4.38Q55.24-6.40 55.24-10L55.24-10L55.24-21.04Z M75-21.20Q79.12-21.20 81.32-19.14Q83.52-17.08 83.52-13.04L83.52-13.04L83.52 0L80.80 0L80.80-3.28Q79.84-1.64 77.98-0.72Q76.12 0.20 73.56 0.20L73.56 0.20Q70.04 0.20 67.96-1.48Q65.88-3.16 65.88-5.92L65.88-5.92Q65.88-8.60 67.82-10.24Q69.76-11.88 74-11.88L74-11.88L80.68-11.88L80.68-13.16Q80.68-15.88 79.16-17.30Q77.64-18.72 74.72-18.72L74.72-18.72Q72.72-18.72 70.88-18.06Q69.04-17.40 67.72-16.24L67.72-16.24L66.44-18.36Q68.04-19.72 70.28-20.46Q72.52-21.20 75-21.20L75-21.20ZM74-2.04Q76.40-2.04 78.12-3.14Q79.84-4.24 80.68-6.32L80.68-6.32L80.68-9.76L74.08-9.76Q68.68-9.76 68.68-6L68.68-6Q68.68-4.16 70.08-3.10Q71.48-2.04 74-2.04L74-2.04Z M92.84 0L92.84-29.68L95.68-29.68L95.68 0L92.84 0Z M105.20 0L105.20-21.04L108.04-21.04L108.04 0L105.20 0ZM106.64-25.64Q105.76-25.64 105.16-26.24Q104.56-26.84 104.56-27.68L104.56-27.68Q104.56-28.48 105.16-29.08Q105.76-29.68 106.64-29.68L106.64-29.68Q107.52-29.68 108.12-29.10Q108.72-28.52 108.72-27.72L108.72-27.72Q108.72-26.84 108.12-26.24Q107.52-25.64 106.64-25.64L106.64-25.64Z M127.64-3.32L128.64-1.28Q127.84-0.56 126.66-0.18Q125.48 0.20 124.20 0.20L124.20 0.20Q121.24 0.20 119.64-1.40Q118.04-3 118.04-5.92L118.04-5.92L118.04-18.64L114.28-18.64L114.28-21.04L118.04-21.04L118.04-25.64L120.88-25.64L120.88-21.04L127.28-21.04L127.28-18.64L120.88-18.64L120.88-6.08Q120.88-4.20 121.82-3.22Q122.76-2.24 124.52-2.24L124.52-2.24Q125.40-2.24 126.22-2.52Q127.04-2.80 127.64-3.32L127.64-3.32Z M149.88-21.04L152.68-21.04L142.16 2.52Q140.88 5.48 139.20 6.72Q137.52 7.96 135.16 7.96L135.16 7.96Q133.64 7.96 132.32 7.48Q131 7 130.04 6.04L130.04 6.04L131.36 3.92Q132.96 5.52 135.20 5.52L135.20 5.52Q136.64 5.52 137.66 4.72Q138.68 3.92 139.56 2L139.56 2L140.48-0.04L131.08-21.04L134.04-21.04L141.96-3.16L149.88-21.04Z M177.72-21.20Q181.84-21.20 184.04-19.14Q186.24-17.08 186.24-13.04L186.24-13.04L186.24 0L183.52 0L183.52-3.28Q182.56-1.64 180.70-0.72Q178.84 0.20 176.28 0.20L176.28 0.20Q172.76 0.20 170.68-1.48Q168.60-3.16 168.60-5.92L168.60-5.92Q168.60-8.60 170.54-10.24Q172.48-11.88 176.72-11.88L176.72-11.88L183.40-11.88L183.40-13.16Q183.40-15.88 181.88-17.30Q180.36-18.72 177.44-18.72L177.44-18.72Q175.44-18.72 173.60-18.06Q171.76-17.40 170.44-16.24L170.44-16.24L169.16-18.36Q170.76-19.72 173.00-20.46Q175.24-21.20 177.72-21.20L177.72-21.20ZM176.72-2.04Q179.12-2.04 180.84-3.14Q182.56-4.24 183.40-6.32L183.40-6.32L183.40-9.76L176.80-9.76Q171.40-9.76 171.40-6L171.40-6Q171.40-4.16 172.80-3.10Q174.20-2.04 176.72-2.04L176.72-2.04Z M201.20 0.20Q198.64 0.20 196.30-0.54Q193.96-1.28 192.64-2.40L192.64-2.40L193.92-4.64Q195.24-3.60 197.24-2.94Q199.24-2.28 201.40-2.28L201.40-2.28Q204.28-2.28 205.66-3.18Q207.04-4.08 207.04-5.72L207.04-5.72Q207.04-6.88 206.28-7.54Q205.52-8.20 204.36-8.54Q203.20-8.88 201.28-9.20L201.28-9.20Q198.72-9.68 197.16-10.18Q195.60-10.68 194.50-11.88Q193.40-13.08 193.40-15.20L193.40-15.20Q193.40-17.84 195.60-19.52Q197.80-21.20 201.72-21.20L201.72-21.20Q203.76-21.20 205.80-20.66Q207.84-20.12 209.16-19.24L209.16-19.24L207.92-16.96Q205.32-18.76 201.72-18.76L201.72-18.76Q199.00-18.76 197.62-17.80Q196.24-16.84 196.24-15.28L196.24-15.28Q196.24-14.08 197.02-13.36Q197.80-12.64 198.96-12.30Q200.12-11.96 202.16-11.60L202.16-11.60Q204.68-11.12 206.20-10.64Q207.72-10.16 208.80-9Q209.88-7.84 209.88-5.80L209.88-5.80Q209.88-3.04 207.58-1.42Q205.28 0.20 201.20 0.20L201.20 0.20Z M222.36 0.20Q219.80 0.20 217.46-0.54Q215.12-1.28 213.80-2.40L213.80-2.40L215.08-4.64Q216.40-3.60 218.40-2.94Q220.40-2.28 222.56-2.28L222.56-2.28Q225.44-2.28 226.82-3.18Q228.20-4.08 228.20-5.72L228.20-5.72Q228.20-6.88 227.44-7.54Q226.68-8.20 225.52-8.54Q224.36-8.88 222.44-9.20L222.44-9.20Q219.88-9.68 218.32-10.18Q216.76-10.68 215.66-11.88Q214.56-13.08 214.56-15.20L214.56-15.20Q214.56-17.84 216.76-19.52Q218.96-21.20 222.88-21.20L222.88-21.20Q224.92-21.20 226.96-20.66Q229.00-20.12 230.32-19.24L230.32-19.24L229.08-16.96Q226.48-18.76 222.88-18.76L222.88-18.76Q220.16-18.76 218.78-17.80Q217.40-16.84 217.40-15.28L217.40-15.28Q217.40-14.08 218.18-13.36Q218.96-12.64 220.12-12.30Q221.28-11.96 223.32-11.60L223.32-11.60Q225.84-11.12 227.36-10.64Q228.88-10.16 229.96-9Q231.04-7.84 231.04-5.80L231.04-5.80Q231.04-3.04 228.74-1.42Q226.44 0.20 222.36 0.20L222.36 0.20Z M254.00-21.04L256.84-21.04L256.84 0L254.12 0L254.12-3.84Q253.00-1.92 251.04-0.86Q249.08 0.20 246.56 0.20L246.56 0.20Q242.44 0.20 240.06-2.10Q237.68-4.40 237.68-8.84L237.68-8.84L237.68-21.04L240.52-21.04L240.52-9.12Q240.52-5.80 242.16-4.08Q243.80-2.36 246.84-2.36L246.84-2.36Q250.16-2.36 252.08-4.38Q254.00-6.40 254.00-10L254.00-10L254.00-21.04Z M269.12-16.92Q270.12-19.04 272.10-20.12Q274.08-21.20 277-21.20L277-21.20L277-18.44L276.32-18.48Q273-18.48 271.12-16.44Q269.24-14.40 269.24-10.72L269.24-10.72L269.24 0L266.40 0L266.40-21.04L269.12-21.04L269.12-16.92Z M301.88-10.52L301.84-9.64L284.24-9.64Q284.48-6.36 286.76-4.34Q289.04-2.32 292.52-2.32L292.52-2.32Q294.48-2.32 296.12-3.02Q297.76-3.72 298.96-5.08L298.96-5.08L300.56-3.24Q299.16-1.56 297.06-0.68Q294.96 0.20 292.44 0.20L292.44 0.20Q289.20 0.20 286.70-1.18Q284.20-2.56 282.80-5Q281.40-7.44 281.40-10.52L281.40-10.52Q281.40-13.60 282.74-16.04Q284.08-18.48 286.42-19.84Q288.76-21.20 291.68-21.20L291.68-21.20Q294.60-21.20 296.92-19.84Q299.24-18.48 300.56-16.06Q301.88-13.64 301.88-10.52L301.88-10.52ZM291.68-18.76Q288.64-18.76 286.58-16.82Q284.52-14.88 284.24-11.76L284.24-11.76L299.16-11.76Q298.88-14.88 296.82-16.82Q294.76-18.76 291.68-18.76L291.68-18.76Z M325.64-29.68L328.48-29.68L328.48 0L325.76 0L325.76-4.16Q324.48-2.04 322.38-0.92Q320.28 0.20 317.64 0.20L317.64 0.20Q314.68 0.20 312.28-1.16Q309.88-2.52 308.52-4.96Q307.16-7.40 307.16-10.52L307.16-10.52Q307.16-13.64 308.52-16.08Q309.88-18.52 312.28-19.86Q314.68-21.20 317.64-21.20L317.64-21.20Q320.20-21.20 322.26-20.14Q324.32-19.08 325.64-17.04L325.64-17.04L325.64-29.68ZM317.88-2.32Q320.08-2.32 321.86-3.34Q323.64-4.36 324.66-6.24Q325.68-8.12 325.68-10.52L325.68-10.52Q325.68-12.92 324.66-14.80Q323.64-16.68 321.86-17.70Q320.08-18.72 317.88-18.72L317.88-18.72Q315.64-18.72 313.86-17.70Q312.08-16.68 311.06-14.80Q310.04-12.92 310.04-10.52L310.04-10.52Q310.04-8.12 311.06-6.24Q312.08-4.36 313.86-3.34Q315.64-2.32 317.88-2.32L317.88-2.32Z"/></g>
</svg>
</g><g opacity="1" transform="rotate(0 82.4385 239.7147)">
<svg width="371.271" height="60" x="82.4385" y="239.7147" version="1.1" preserveAspectRatio="none" viewBox="1.8 -33.2 208.16 33.64">
  <g transform="matrix(1 0 0 1 0 0)" class="companyName"><path id="id-D6z1nYkh11" d="M10.40-11.40L10.40-6.36Q10.40-4.84 10.56-3.88Q10.72-2.92 11.20-2.40Q11.68-1.88 12.52-1.70Q13.36-1.52 14.76-1.52L14.76-1.52L14.76 0L1.80 0L1.80-1.52Q3.20-1.52 4.06-1.70Q4.92-1.88 5.40-2.38Q5.88-2.88 6.04-3.78Q6.20-4.68 6.20-6.08L6.20-6.08L6.20-24.72Q6.20-26.24 6.02-27.14Q5.84-28.04 5.38-28.52Q4.92-29 4.16-29.14Q3.40-29.28 2.20-29.28L2.20-29.28L2.20-30.80L14.36-30.80L14.36-29.28Q13.16-29.28 12.40-29.12Q11.64-28.96 11.18-28.44Q10.72-27.92 10.56-26.98Q10.40-26.04 10.40-24.44L10.40-24.44L10.40-14.56L20.40-26.60Q21.20-27.60 21.20-28.16L21.20-28.16Q21.20-29.28 18.92-29.28L18.92-29.28L18.92-30.80L28.56-30.80L28.56-29.32Q27.76-29.32 27.16-29.22Q26.56-29.12 25.98-28.80Q25.40-28.48 24.76-27.88Q24.12-27.28 23.28-26.32L23.28-26.32L15.76-17.64L27.44-3.60Q28.44-2.44 29.32-1.98Q30.20-1.52 31.68-1.52L31.68-1.52L31.68 0L19.40 0L19.40-1.52Q20.96-1.52 21.64-1.78Q22.32-2.04 22.32-2.60L22.32-2.60Q22.32-2.92 22-3.52Q21.68-4.12 20.96-5L20.96-5L13.16-14.60L10.40-11.40Z M39.48-11.48L39.48-6.36Q39.48-4.72 39.56-3.76Q39.64-2.80 39.98-2.30Q40.32-1.80 40.96-1.64Q41.60-1.48 42.76-1.40L42.76-1.40L42.76 0L32.12 0L32.12-1.40Q33.28-1.48 33.96-1.64Q34.64-1.80 35-2.28Q35.36-2.76 35.46-3.66Q35.56-4.56 35.56-6.08L35.56-6.08L35.56-22.84Q35.56-25.20 35.50-26.60Q35.44-28 35.28-28.72L35.28-28.72Q35.20-29.20 35.02-29.50Q34.84-29.80 34.48-29.98Q34.12-30.16 33.52-30.24Q32.92-30.32 32.04-30.32L32.04-30.32L32.04-31.68L39.40-33.20L39.40-17.96L39.56-17.96Q40.16-18.76 41.06-19.42Q41.96-20.08 43-20.56Q44.04-21.04 45.18-21.32Q46.32-21.60 47.40-21.60L47.40-21.60Q49.24-21.60 50.78-20.96Q52.32-20.32 53.16-19.24L53.16-19.24Q53.84-18.32 54.16-16.82Q54.48-15.32 54.48-12.76L54.48-12.76L54.48-6.36Q54.48-4.72 54.56-3.78Q54.64-2.84 54.98-2.32Q55.32-1.80 55.96-1.64Q56.60-1.48 57.76-1.40L57.76-1.40L57.76 0L47.16 0L47.16-1.40Q48.28-1.44 48.96-1.62Q49.64-1.80 49.98-2.28Q50.32-2.76 50.42-3.66Q50.52-4.56 50.52-6.08L50.52-6.08L50.52-11.12Q50.52-15.60 49.48-17.50Q48.44-19.40 46-19.40L46-19.40Q44.12-19.40 42.58-18.44Q41.04-17.48 40.16-15.80L40.16-15.80Q39.96-15.36 39.82-14.98Q39.68-14.60 39.60-14.12Q39.52-13.64 39.50-13.02Q39.48-12.40 39.48-11.48L39.48-11.48Z M72.64-8.68L72.64-11.84Q70.36-10.96 68.78-10.12Q67.20-9.28 66.24-8.44Q65.28-7.60 64.86-6.76Q64.44-5.92 64.44-5.04L64.44-5.04Q64.44-3.72 65.32-2.88Q66.20-2.04 67.64-2.04L67.64-2.04Q68.68-2.04 69.58-2.56Q70.48-3.08 71.16-3.98Q71.84-4.88 72.24-6.10Q72.64-7.32 72.64-8.68L72.64-8.68ZM66.88-11.04L72.64-13.56L72.64-15.20Q72.64-20.08 68.48-20.08L68.48-20.08Q67.80-20.08 67.32-19.96Q66.84-19.84 66.52-19.56Q66.20-19.28 65.94-18.76Q65.68-18.24 65.44-17.48L65.44-17.48Q65-16.32 64.58-15.94Q64.16-15.56 63.36-15.56L63.36-15.56Q61.36-15.56 61.36-17.56L61.36-17.56Q61.36-19.48 63.40-20.54Q65.44-21.60 69.20-21.60L69.20-21.60Q73.20-21.60 74.88-20.18Q76.56-18.76 76.56-15.36L76.56-15.36L76.56-6.40Q76.56-1.84 78.36-1.84L78.36-1.84Q78.92-1.84 79.44-1.98Q79.96-2.12 80.32-2.72L80.32-2.72L80.88-1.76Q80.40-0.84 79.12-0.22Q77.84 0.40 76.44 0.40L76.44 0.40Q74.68 0.40 73.82-0.72Q72.96-1.84 72.96-3.88L72.96-3.88L72.76-3.88Q71.72-1.92 69.88-0.78Q68.04 0.36 65.80 0.36L65.80 0.36Q63.28 0.36 61.84-0.92Q60.40-2.20 60.40-4.36L60.40-4.36Q60.40-5.32 60.74-6.20Q61.08-7.08 61.84-7.88Q62.60-8.68 63.84-9.46Q65.08-10.24 66.88-11.04L66.88-11.04Z M89.20-33.20L89.20-6.24Q89.20-4.72 89.32-3.80Q89.44-2.88 89.82-2.36Q90.20-1.84 90.90-1.64Q91.60-1.44 92.76-1.40L92.76-1.40L92.76 0L81.72 0L81.72-1.40Q82.92-1.44 83.64-1.66Q84.36-1.88 84.78-2.36Q85.20-2.84 85.34-3.70Q85.48-4.56 85.48-5.96L85.48-5.96L85.48-23.20Q85.48-25.36 85.42-26.82Q85.36-28.28 85.24-28.80L85.24-28.80Q85.04-29.72 84.30-30.04Q83.56-30.36 81.64-30.36L81.64-30.36L81.64-31.72L89.20-33.20Z M102.96-21.60L102.96-6.36Q102.96-4.80 103.10-3.86Q103.24-2.92 103.64-2.38Q104.04-1.84 104.76-1.64Q105.48-1.44 106.68-1.40L106.68-1.40L106.68 0L95.20 0L95.20-1.40Q96.40-1.44 97.16-1.66Q97.92-1.88 98.34-2.38Q98.76-2.88 98.90-3.78Q99.04-4.68 99.04-6.08L99.04-6.08L99.04-11.20Q99.04-13.52 98.98-15.02Q98.92-16.52 98.76-17.08L98.76-17.08Q98.56-18 97.84-18.34Q97.12-18.68 95.12-18.68L95.12-18.68L95.12-20.08L102.96-21.60ZM98.36-29.72L98.36-29.72Q98.36-30.76 99.08-31.48Q99.80-32.20 100.84-32.20L100.84-32.20Q101.88-32.20 102.60-31.48Q103.32-30.76 103.32-29.72L103.32-29.72Q103.32-28.68 102.60-27.96Q101.88-27.24 100.84-27.24L100.84-27.24Q99.80-27.24 99.08-27.96Q98.36-28.68 98.36-29.72Z M115.84-33.20L115.84-6.24Q115.84-4.72 115.96-3.80Q116.08-2.88 116.46-2.36Q116.84-1.84 117.54-1.64Q118.24-1.44 119.40-1.40L119.40-1.40L119.40 0L108.36 0L108.36-1.40Q109.56-1.44 110.28-1.66Q111-1.88 111.42-2.36Q111.84-2.84 111.98-3.70Q112.12-4.56 112.12-5.96L112.12-5.96L112.12-23.20Q112.12-25.36 112.06-26.82Q112-28.28 111.88-28.80L111.88-28.80Q111.68-29.72 110.94-30.04Q110.20-30.36 108.28-30.36L108.28-30.36L108.28-31.72L115.84-33.20Z M139-10.88L139-14.80Q139-16.44 138.92-17.38Q138.84-18.32 138.50-18.82Q138.16-19.32 137.50-19.50Q136.84-19.68 135.68-19.80L135.68-19.80L135.68-21.20L142.92-21.20L142.92-8.92Q142.92-6.64 142.98-5.20Q143.04-3.76 143.16-3.04L143.16-3.04Q143.24-2.52 143.42-2.22Q143.60-1.92 143.96-1.74Q144.32-1.56 144.90-1.50Q145.48-1.44 146.40-1.44L146.40-1.44L146.40-0.04L139.80 0.44L139.36-4.36L139.20-4.36Q137.68-1.88 135.70-0.74Q133.72 0.40 131.56 0.40L131.56 0.40Q129.88 0.40 128.30-0.24Q126.72-0.88 125.92-1.96L125.92-1.96Q125.24-2.84 124.94-4.40Q124.64-5.96 124.64-8.44L124.64-8.44L124.64-14.80Q124.64-16.44 124.56-17.38Q124.48-18.32 124.14-18.82Q123.80-19.32 123.14-19.50Q122.48-19.68 121.32-19.80L121.32-19.80L121.32-21.20L128.56-21.20L128.56-10.28Q128.56-5.92 129.58-3.96Q130.60-2 132.84-2L132.84-2Q136.36-2 138.32-6.60L138.32-6.60Q138.52-7.08 138.64-7.48Q138.76-7.88 138.84-8.36Q138.92-8.84 138.96-9.44Q139-10.04 139-10.88L139-10.88Z M155.64-33.20L155.64-6.24Q155.64-4.72 155.76-3.80Q155.88-2.88 156.26-2.36Q156.64-1.84 157.34-1.64Q158.04-1.44 159.20-1.40L159.20-1.40L159.20 0L148.16 0L148.16-1.40Q149.36-1.44 150.08-1.66Q150.80-1.88 151.22-2.36Q151.64-2.84 151.78-3.70Q151.92-4.56 151.92-5.96L151.92-5.96L151.92-23.20Q151.92-25.36 151.86-26.82Q151.80-28.28 151.68-28.80L151.68-28.80Q151.48-29.72 150.74-30.04Q150-30.36 148.08-30.36L148.08-30.36L148.08-31.72L155.64-33.20Z M174.24-8.68L174.24-11.84Q171.96-10.96 170.38-10.12Q168.80-9.28 167.84-8.44Q166.88-7.60 166.46-6.76Q166.04-5.92 166.04-5.04L166.04-5.04Q166.04-3.72 166.92-2.88Q167.80-2.04 169.24-2.04L169.24-2.04Q170.28-2.04 171.18-2.56Q172.08-3.08 172.76-3.98Q173.44-4.88 173.84-6.10Q174.24-7.32 174.24-8.68L174.24-8.68ZM168.48-11.04L174.24-13.56L174.24-15.20Q174.24-20.08 170.08-20.08L170.08-20.08Q169.40-20.08 168.92-19.96Q168.44-19.84 168.12-19.56Q167.80-19.28 167.54-18.76Q167.28-18.24 167.04-17.48L167.04-17.48Q166.60-16.32 166.18-15.94Q165.76-15.56 164.96-15.56L164.96-15.56Q162.96-15.56 162.96-17.56L162.96-17.56Q162.96-19.48 165-20.54Q167.04-21.60 170.80-21.60L170.80-21.60Q174.80-21.60 176.48-20.18Q178.16-18.76 178.16-15.36L178.16-15.36L178.16-6.40Q178.16-1.84 179.96-1.84L179.96-1.84Q180.52-1.84 181.04-1.98Q181.56-2.12 181.92-2.72L181.92-2.72L182.48-1.76Q182-0.84 180.72-0.22Q179.44 0.40 178.04 0.40L178.04 0.40Q176.28 0.40 175.42-0.72Q174.56-1.84 174.56-3.88L174.56-3.88L174.36-3.88Q173.32-1.92 171.48-0.78Q169.64 0.36 167.40 0.36L167.40 0.36Q164.88 0.36 163.44-0.92Q162-2.20 162-4.36L162-4.36Q162-5.32 162.34-6.20Q162.68-7.08 163.44-7.88Q164.20-8.68 165.44-9.46Q166.68-10.24 168.48-11.04L168.48-11.04Z M190.76-11.48L190.76-6.36Q190.76-4.72 190.84-3.76Q190.92-2.80 191.26-2.30Q191.60-1.80 192.24-1.64Q192.88-1.48 194.04-1.40L194.04-1.40L194.04 0L183.40 0L183.40-1.40Q184.56-1.48 185.24-1.64Q185.92-1.80 186.28-2.28Q186.64-2.76 186.74-3.66Q186.84-4.56 186.84-6.08L186.84-6.08L186.84-22.84Q186.84-25.20 186.78-26.60Q186.72-28 186.56-28.72L186.56-28.72Q186.48-29.20 186.30-29.50Q186.12-29.80 185.76-29.98Q185.40-30.16 184.80-30.24Q184.20-30.32 183.32-30.32L183.32-30.32L183.32-31.68L190.68-33.20L190.68-17.96L190.84-17.96Q191.44-18.76 192.34-19.42Q193.24-20.08 194.28-20.56Q195.32-21.04 196.46-21.32Q197.60-21.60 198.68-21.60L198.68-21.60Q200.52-21.60 202.06-20.96Q203.60-20.32 204.44-19.24L204.44-19.24Q205.12-18.32 205.44-16.82Q205.76-15.32 205.76-12.76L205.76-12.76L205.76-6.36Q205.76-4.72 205.84-3.78Q205.92-2.84 206.26-2.32Q206.60-1.80 207.24-1.64Q207.88-1.48 209.04-1.40L209.04-1.40L209.04 0L198.44 0L198.44-1.40Q199.56-1.44 200.24-1.62Q200.92-1.80 201.26-2.28Q201.60-2.76 201.70-3.66Q201.80-4.56 201.80-6.08L201.80-6.08L201.80-11.12Q201.80-15.60 200.76-17.50Q199.72-19.40 197.28-19.40L197.28-19.40Q195.40-19.40 193.86-18.44Q192.32-17.48 191.44-15.80L191.44-15.80Q191.24-15.36 191.10-14.98Q190.96-14.60 190.88-14.12Q190.80-13.64 190.78-13.02Q190.76-12.40 190.76-11.48L190.76-11.48Z"/></g>
</svg>
</g><g opacity="1" transform="rotate(0 82.4385 309.7147)">
<svg width="81.6797" height="6" x="82.4385" y="309.7147" version="1.1" preserveAspectRatio="none" viewBox="0 0 81.6797 6">
  <rect x="0" y="0" width="81.6797" height="6" class="icon1 shapeStroke-str" style="stroke-width:0;" rx="0px" ry="0px" />
</svg>
</g></svg></svg>