<svg version="1.1" preserveAspectRatio="none" xmlns="http://www.w3.org/2000/svg" width="500" height="500" viewBox="0 0 500 500"><rect width="100%" height="100%" fill="#FFFFFF" fill-opacity="1"/><svg viewBox="143.5844 362.7804 376.0627 109.9999" width="417" height="121.97423009514104" x="41.5px" y="189.0129px" xmlns="http://www.w3.org/2000/svg" xmlns:xlink="http://www.w3.org/1999/xlink" preserveAspectRatio="none"><defs></defs><style>.companyName {fill:#1e1e1e;fill-opacity:1;}.icon1 {fill:#EB3F3F;fill-opacity:1;}.icon3-str {stroke:#848383;stroke-opacity:1;}.shapeStroke-str {stroke:#1e1e1e;stroke-opacity:1;}</style><g opacity="1" transform="rotate(0 143.5844 402.7804)">
<svg width="376.0627" height="69.9999" x="143.5844" y="402.7804" version="1.1" preserveAspectRatio="none" viewBox="2.28 -29.68 161.6 30.08">
  <g transform="matrix(1 0 0 1 0 0)" class="companyName"><path id="id-D6z1nYkh8" d="M24.68-14.64Q27.16-13.72 28.52-11.96Q29.88-10.20 29.88-7.72L29.88-7.72Q29.88-4.04 26.84-2.02Q23.80 0 18.04 0L18.04 0L2.28 0L2.28-28L17.24-28Q22.84-28 25.70-26Q28.56-24 28.56-20.68L28.56-20.68Q28.56-18.72 27.58-17.16Q26.60-15.60 24.68-14.64L24.68-14.64ZM15.96-21.40L11.56-21.40L11.56-17.24L15.96-17.24Q19.04-17.24 19.04-19.32L19.04-19.32Q19.04-21.40 15.96-21.40L15.96-21.40ZM17.24-6.60Q20.36-6.60 20.36-8.80L20.36-8.80Q20.36-11 17.24-11L17.24-11L11.56-11L11.56-6.60L17.24-6.60Z M44.48 0.40Q40.84 0.40 37.94-1.06Q35.04-2.52 33.40-5.10Q31.76-7.68 31.76-10.96L31.76-10.96Q31.76-14.24 33.40-16.82Q35.04-19.40 37.94-20.84Q40.84-22.28 44.48-22.28L44.48-22.28Q48.16-22.28 51.06-20.84Q53.96-19.40 55.58-16.82Q57.20-14.24 57.20-10.96L57.20-10.96Q57.20-7.68 55.58-5.10Q53.96-2.52 51.06-1.06Q48.16 0.40 44.48 0.40L44.48 0.40ZM44.48-6.64Q46.04-6.64 47.04-7.78Q48.04-8.92 48.04-10.96L48.04-10.96Q48.04-13 47.04-14.12Q46.04-15.24 44.48-15.24L44.48-15.24Q42.92-15.24 41.92-14.12Q40.92-13 40.92-10.96L40.92-10.96Q40.92-8.92 41.92-7.78Q42.92-6.64 44.48-6.64L44.48-6.64Z M60.04 0L60.04-29.68L69.08-29.68L69.08 0L60.04 0Z M82.88-22.28Q88.64-22.28 91.68-19.70Q94.72-17.12 94.72-11.76L94.72-11.76L94.72 0L86.32 0L86.32-2.88Q84.76 0.40 80.12 0.40L80.12 0.40Q77.52 0.40 75.70-0.50Q73.88-1.40 72.94-2.94Q72.00-4.48 72.00-6.40L72.00-6.40Q72.00-9.64 74.48-11.32Q76.96-13 82.00-13L82.00-13L85.64-13Q85.20-15.56 81.52-15.56L81.52-15.56Q80.04-15.56 78.52-15.10Q77.00-14.64 75.92-13.84L75.92-13.84L73.04-19.80Q74.92-20.96 77.58-21.62Q80.24-22.28 82.88-22.28L82.88-22.28ZM82.84-5.04Q83.80-5.04 84.56-5.56Q85.32-6.08 85.68-7.12L85.68-7.12L85.68-8.64L83.44-8.64Q80.68-8.64 80.68-6.80L80.68-6.80Q80.68-6.04 81.26-5.54Q81.84-5.04 82.84-5.04L82.84-5.04Z M113.84-22.28Q117.88-22.28 120.34-19.84Q122.80-17.40 122.80-12.48L122.80-12.48L122.80 0L113.76 0L113.76-10.92Q113.76-14.68 111.08-14.68L111.08-14.68Q109.56-14.68 108.62-13.62Q107.68-12.56 107.68-10.28L107.68-10.28L107.68 0L98.64 0L98.64-21.88L107.24-21.88L107.24-19.72Q108.52-21 110.20-21.64Q111.88-22.28 113.84-22.28L113.84-22.28Z M126.72 0L126.72-29.68L135.76-29.68L135.76 0L126.72 0Z M163.04-10.96Q163.04-10.76 162.92-8.84L162.92-8.84L147.72-8.84Q148.20-7.60 149.32-6.94Q150.44-6.28 152.12-6.28L152.12-6.28Q153.56-6.28 154.54-6.64Q155.52-7 156.68-7.88L156.68-7.88L161.40-3.12Q158.20 0.40 151.84 0.40L151.84 0.40Q147.88 0.40 144.88-1.06Q141.88-2.52 140.24-5.12Q138.60-7.72 138.60-10.96L138.60-10.96Q138.60-14.24 140.22-16.82Q141.84-19.40 144.66-20.84Q147.48-22.28 151.00-22.28L151.00-22.28Q154.32-22.28 157.06-20.96Q159.80-19.64 161.42-17.08Q163.04-14.52 163.04-10.96L163.04-10.96ZM151.08-16.12Q149.68-16.12 148.76-15.36Q147.84-14.60 147.56-13.20L147.56-13.20L154.60-13.20Q154.32-14.56 153.40-15.34Q152.48-16.12 151.08-16.12L151.08-16.12Z"/></g>
</svg>
</g><g opacity="1" transform="rotate(0 143.5844 362.7804)">
<svg width="130.0001" height="22" x="143.5844" y="362.7804" version="1.1" preserveAspectRatio="none" viewBox="0 0 130.0001 22">
  <rect x="0" y="0" width="130.0001" height="22" class="icon1 shapeStroke-str" style="stroke-width:0;" rx="0%" ry="0%" />
</svg>
</g></svg></svg>