<svg version="1.1" preserveAspectRatio="none" xmlns="http://www.w3.org/2000/svg" width="500" height="500" viewBox="0 0 500 500"><rect width="100%" height="100%" fill="#FFFFFF" fill-opacity="1"/><svg viewBox="111.3724 272.4203 389.3136 132.4" width="417" height="141.81574956538893" x="41.5px" y="179.0921px" xmlns="http://www.w3.org/2000/svg" xmlns:xlink="http://www.w3.org/1999/xlink" preserveAspectRatio="none"><defs></defs><style>.companyName {fill:#1e1e1e;fill-opacity:1;}.icon1 {fill:#EB3F3F;fill-opacity:1;}.icon3-str {stroke:#848383;stroke-opacity:1;}.shapeStroke-str {stroke:#1e1e1e;stroke-opacity:1;}.text {fill:#1e1e1e;fill-opacity:1;}</style><g opacity="1" transform="rotate(0 111.3724 384.4203)">
<svg width="180.034" height="20.4" x="111.3724" y="384.4203" version="1.1" preserveAspectRatio="none" viewBox="1.56 -31.48 349.12 39.56">
  <g transform="matrix(1 0 0 1 0 0)" class="text"><path id="id-6izo4zJp16" d="M30.72-0.44L33.60 3Q32.24 4.68 30.30 5.56Q28.36 6.44 26.04 6.44L26.04 6.44Q22.92 6.44 20.40 5.10Q17.88 3.76 14.64 0.36L14.64 0.36Q10.84-0.12 7.86-2.08Q4.88-4.04 3.22-7.14Q1.56-10.24 1.56-14L1.56-14Q1.56-18.12 3.54-21.42Q5.52-24.72 9.02-26.60Q12.52-28.48 16.88-28.48L16.88-28.48Q21.24-28.48 24.72-26.60Q28.20-24.72 30.20-21.42Q32.20-18.12 32.20-14L32.20-14Q32.20-9.12 29.46-5.44Q26.72-1.76 22.20-0.32L22.20-0.32Q23.20 0.72 24.14 1.18Q25.08 1.64 26.16 1.64L26.16 1.64Q28.76 1.64 30.72-0.44L30.72-0.44ZM8.12-14Q8.12-11.40 9.26-9.36Q10.40-7.32 12.40-6.18Q14.40-5.04 16.88-5.04L16.88-5.04Q19.36-5.04 21.36-6.18Q23.36-7.32 24.50-9.36Q25.64-11.40 25.64-14L25.64-14Q25.64-16.60 24.50-18.64Q23.36-20.68 21.36-21.82Q19.36-22.96 16.88-22.96L16.88-22.96Q14.40-22.96 12.40-21.82Q10.40-20.68 9.26-18.64Q8.12-16.60 8.12-14L8.12-14Z M53.68-21.52L59.92-21.52L59.92 0L54 0L54-2.56Q52.76-1.16 51.04-0.42Q49.32 0.32 47.32 0.32L47.32 0.32Q43.08 0.32 40.60-2.12Q38.12-4.56 38.12-9.36L38.12-9.36L38.12-21.52L44.36-21.52L44.36-10.28Q44.36-5.08 48.72-5.08L48.72-5.08Q50.96-5.08 52.32-6.54Q53.68-8 53.68-10.88L53.68-10.88L53.68-21.52Z M76-21.84Q81-21.84 83.68-19.46Q86.36-17.08 86.36-12.28L86.36-12.28L86.36 0L80.52 0L80.52-2.68Q78.76 0.32 73.96 0.32L73.96 0.32Q71.48 0.32 69.66-0.52Q67.84-1.36 66.88-2.84Q65.92-4.32 65.92-6.20L65.92-6.20Q65.92-9.20 68.18-10.92Q70.44-12.64 75.16-12.64L75.16-12.64L80.12-12.64Q80.12-14.68 78.88-15.78Q77.64-16.88 75.16-16.88L75.16-16.88Q73.44-16.88 71.78-16.34Q70.12-15.80 68.96-14.88L68.96-14.88L66.72-19.24Q68.48-20.48 70.94-21.16Q73.40-21.84 76-21.84L76-21.84ZM75.52-3.88Q77.12-3.88 78.36-4.62Q79.60-5.36 80.12-6.80L80.12-6.80L80.12-9L75.84-9Q72-9 72-6.48L72-6.48Q72-5.28 72.94-4.58Q73.88-3.88 75.52-3.88L75.52-3.88Z M93.60 0L93.60-29.68L99.84-29.68L99.84 0L93.60 0Z M107.24 0L107.24-21.52L113.48-21.52L113.48 0L107.24 0ZM110.36-24.52Q108.64-24.52 107.56-25.52Q106.48-26.52 106.48-28L106.48-28Q106.48-29.48 107.56-30.48Q108.64-31.48 110.36-31.48L110.36-31.48Q112.08-31.48 113.16-30.52Q114.24-29.56 114.24-28.12L114.24-28.12Q114.24-26.56 113.16-25.54Q112.08-24.52 110.36-24.52L110.36-24.52Z M133.08-5.44L134.76-1.04Q133.84-0.36 132.50-0.02Q131.16 0.32 129.68 0.32L129.68 0.32Q125.84 0.32 123.74-1.64Q121.64-3.60 121.64-7.40L121.64-7.40L121.64-16.24L118.32-16.24L118.32-21.04L121.64-21.04L121.64-26.28L127.88-26.28L127.88-21.04L133.24-21.04L133.24-16.24L127.88-16.24L127.88-7.48Q127.88-6.12 128.58-5.38Q129.28-4.64 130.56-4.64L130.56-4.64Q132.04-4.64 133.08-5.44L133.08-5.44Z M154.84-21.52L160.84-21.52L151.12 1.32Q149.64 5.04 147.46 6.56Q145.28 8.08 142.20 8.08L142.20 8.08Q140.52 8.08 138.88 7.56Q137.24 7.04 136.20 6.12L136.20 6.12L138.48 1.68Q139.20 2.32 140.14 2.68Q141.08 3.04 142 3.04L142 3.04Q143.28 3.04 144.08 2.42Q144.88 1.80 145.52 0.36L145.52 0.36L145.60 0.16L136.28-21.52L142.72-21.52L148.76-6.92L154.84-21.52Z M186.60-21.84Q191.60-21.84 194.28-19.46Q196.96-17.08 196.96-12.28L196.96-12.28L196.96 0L191.12 0L191.12-2.68Q189.36 0.32 184.56 0.32L184.56 0.32Q182.08 0.32 180.26-0.52Q178.44-1.36 177.48-2.84Q176.52-4.32 176.52-6.20L176.52-6.20Q176.52-9.20 178.78-10.92Q181.04-12.64 185.76-12.64L185.76-12.64L190.72-12.64Q190.72-14.68 189.48-15.78Q188.24-16.88 185.76-16.88L185.76-16.88Q184.04-16.88 182.38-16.34Q180.72-15.80 179.56-14.88L179.56-14.88L177.32-19.24Q179.08-20.48 181.54-21.16Q184.00-21.84 186.60-21.84L186.60-21.84ZM186.12-3.88Q187.72-3.88 188.96-4.62Q190.20-5.36 190.72-6.80L190.72-6.80L190.72-9L186.44-9Q182.60-9 182.60-6.48L182.60-6.48Q182.60-5.28 183.54-4.58Q184.48-3.88 186.12-3.88L186.12-3.88Z M211.44 0.32Q208.76 0.32 206.20-0.34Q203.64-1 202.12-2L202.12-2L204.20-6.48Q205.64-5.56 207.68-4.98Q209.72-4.40 211.68-4.40L211.68-4.40Q215.64-4.40 215.64-6.36L215.64-6.36Q215.64-7.28 214.56-7.68Q213.48-8.08 211.24-8.36L211.24-8.36Q208.60-8.76 206.88-9.28Q205.16-9.80 203.90-11.12Q202.64-12.44 202.64-14.88L202.64-14.88Q202.64-16.92 203.82-18.50Q205.00-20.08 207.26-20.96Q209.52-21.84 212.60-21.84L212.60-21.84Q214.88-21.84 217.14-21.34Q219.40-20.84 220.88-19.96L220.88-19.96L218.80-15.52Q215.96-17.12 212.60-17.12L212.60-17.12Q210.60-17.12 209.60-16.56Q208.60-16 208.60-15.12L208.60-15.12Q208.60-14.12 209.68-13.72Q210.76-13.32 213.12-12.96L213.12-12.96Q215.76-12.52 217.44-12.02Q219.12-11.52 220.36-10.20Q221.60-8.88 221.60-6.52L221.60-6.52Q221.60-4.52 220.40-2.96Q219.20-1.40 216.90-0.54Q214.60 0.32 211.44 0.32L211.44 0.32Z M234.28 0.32Q231.60 0.32 229.04-0.34Q226.48-1 224.96-2L224.96-2L227.04-6.48Q228.48-5.56 230.52-4.98Q232.56-4.40 234.52-4.40L234.52-4.40Q238.48-4.40 238.48-6.36L238.48-6.36Q238.48-7.28 237.40-7.68Q236.32-8.08 234.08-8.36L234.08-8.36Q231.44-8.76 229.72-9.28Q228.00-9.80 226.74-11.12Q225.48-12.44 225.48-14.88L225.48-14.88Q225.48-16.92 226.66-18.50Q227.84-20.08 230.10-20.96Q232.36-21.84 235.44-21.84L235.44-21.84Q237.72-21.84 239.98-21.34Q242.24-20.84 243.72-19.96L243.72-19.96L241.64-15.52Q238.80-17.12 235.44-17.12L235.44-17.12Q233.44-17.12 232.44-16.56Q231.44-16 231.44-15.12L231.44-15.12Q231.44-14.12 232.52-13.72Q233.60-13.32 235.96-12.96L235.96-12.96Q238.60-12.52 240.28-12.02Q241.96-11.52 243.20-10.20Q244.44-8.88 244.44-6.52L244.44-6.52Q244.44-4.52 243.24-2.96Q242.04-1.40 239.74-0.54Q237.44 0.32 234.28 0.32L234.28 0.32Z M265.32-21.52L271.56-21.52L271.56 0L265.64 0L265.64-2.56Q264.40-1.16 262.68-0.42Q260.96 0.32 258.96 0.32L258.96 0.32Q254.72 0.32 252.24-2.12Q249.76-4.56 249.76-9.36L249.76-9.36L249.76-21.52L256.00-21.52L256.00-10.28Q256.00-5.08 260.36-5.08L260.36-5.08Q262.60-5.08 263.96-6.54Q265.32-8 265.32-10.88L265.32-10.88L265.32-21.52Z M284.92-18.68Q286.04-20.24 287.94-21.04Q289.84-21.84 292.32-21.84L292.32-21.84L292.32-16.08Q291.28-16.16 290.92-16.16L290.92-16.16Q288.24-16.16 286.72-14.66Q285.20-13.16 285.20-10.16L285.20-10.16L285.20 0L278.96 0L278.96-21.52L284.92-21.52L284.92-18.68Z M318.52-10.68Q318.52-10.56 318.40-9L318.40-9L302.12-9Q302.56-7 304.20-5.84Q305.84-4.68 308.28-4.68L308.28-4.68Q309.96-4.68 311.26-5.18Q312.56-5.68 313.68-6.76L313.68-6.76L317-3.16Q313.96 0.32 308.12 0.32L308.12 0.32Q304.48 0.32 301.68-1.10Q298.88-2.52 297.36-5.04Q295.84-7.56 295.84-10.76L295.84-10.76Q295.84-13.92 297.34-16.46Q298.84-19 301.46-20.42Q304.08-21.84 307.32-21.84L307.32-21.84Q310.48-21.84 313.04-20.48Q315.60-19.12 317.06-16.58Q318.52-14.04 318.52-10.68L318.52-10.68ZM307.36-17.12Q305.24-17.12 303.80-15.92Q302.36-14.72 302.04-12.64L302.04-12.64L312.64-12.64Q312.32-14.68 310.88-15.90Q309.44-17.12 307.36-17.12L307.36-17.12Z M339.96-29.68L346.20-29.68L346.20 0L340.24 0L340.24-2.48Q337.92 0.32 333.52 0.32L333.52 0.32Q330.48 0.32 328.02-1.04Q325.56-2.40 324.16-4.92Q322.76-7.44 322.76-10.76L322.76-10.76Q322.76-14.08 324.16-16.60Q325.56-19.12 328.02-20.48Q330.48-21.84 333.52-21.84L333.52-21.84Q337.64-21.84 339.96-19.24L339.96-19.24L339.96-29.68ZM334.60-4.80Q336.96-4.80 338.52-6.42Q340.08-8.04 340.08-10.76L340.08-10.76Q340.08-13.48 338.52-15.10Q336.96-16.72 334.60-16.72L334.60-16.72Q332.20-16.72 330.64-15.10Q329.08-13.48 329.08-10.76L329.08-10.76Q329.08-8.04 330.64-6.42Q332.20-4.80 334.60-4.80L334.60-4.80Z"/></g>
</svg>
</g><g opacity="1" transform="rotate(0 111.3724 312.4203)">
<svg width="389.3136" height="60" x="111.3724" y="312.4203" version="1.1" preserveAspectRatio="none" viewBox="2.28 -32.84 215.68 33.24000000000001">
  <g transform="matrix(1 0 0 1 0 0)" class="companyName"><path id="id-D6z1nYkh11" d="M20.68 0L13.68-9.28L11.56-6.92L11.56 0L2.28 0L2.28-28L11.56-28L11.56-17.84L20.76-28L31.04-28L19.84-15.68L31.60 0L20.68 0Z M47.80-22.28Q51.84-22.28 54.30-19.84Q56.76-17.40 56.76-12.48L56.76-12.48L56.76 0L47.72 0L47.72-10.92Q47.72-14.68 45.04-14.68L45.04-14.68Q43.52-14.68 42.58-13.62Q41.64-12.56 41.64-10.28L41.64-10.28L41.64 0L32.60 0L32.60-29.68L41.64-29.68L41.64-20.12Q44.16-22.28 47.80-22.28L47.80-22.28Z M70.48-22.28Q76.24-22.28 79.28-19.70Q82.32-17.12 82.32-11.76L82.32-11.76L82.32 0L73.92 0L73.92-2.88Q72.36 0.40 67.72 0.40L67.72 0.40Q65.12 0.40 63.30-0.50Q61.48-1.40 60.54-2.94Q59.60-4.48 59.60-6.40L59.60-6.40Q59.60-9.64 62.08-11.32Q64.56-13 69.60-13L69.60-13L73.24-13Q72.80-15.56 69.12-15.56L69.12-15.56Q67.64-15.56 66.12-15.10Q64.60-14.64 63.52-13.84L63.52-13.84L60.64-19.80Q62.52-20.96 65.18-21.62Q67.84-22.28 70.48-22.28L70.48-22.28ZM70.44-5.04Q71.40-5.04 72.16-5.56Q72.92-6.08 73.28-7.12L73.28-7.12L73.28-8.64L71.04-8.64Q68.28-8.64 68.28-6.80L68.28-6.80Q68.28-6.04 68.86-5.54Q69.44-5.04 70.44-5.04L70.44-5.04Z M86.24 0L86.24-29.68L95.28-29.68L95.28 0L86.24 0Z M99.28 0L99.28-21.88L108.32-21.88L108.32 0L99.28 0ZM103.80-23.64Q101.36-23.64 99.86-24.94Q98.36-26.24 98.36-28.24L98.36-28.24Q98.36-30.24 99.86-31.54Q101.36-32.84 103.80-32.84L103.80-32.84Q106.28-32.84 107.76-31.60Q109.24-30.36 109.24-28.40L109.24-28.40Q109.24-26.32 107.76-24.98Q106.28-23.64 103.80-23.64L103.80-23.64Z M112.32 0L112.32-29.68L121.36-29.68L121.36 0L112.32 0Z M140.24-21.88L149.28-21.88L149.28 0L140.68 0L140.68-2.08Q139.48-0.84 137.88-0.22Q136.28 0.40 134.48 0.40L134.48 0.40Q130.32 0.40 127.80-2.14Q125.28-4.68 125.28-9.80L125.28-9.80L125.28-21.88L134.32-21.88L134.32-11.36Q134.32-9.12 135.04-8.16Q135.76-7.20 137.16-7.20L137.16-7.20Q138.48-7.20 139.36-8.26Q140.24-9.32 140.24-11.60L140.24-11.60L140.24-21.88Z M153.28 0L153.28-29.68L162.32-29.68L162.32 0L153.28 0Z M176.12-22.28Q181.88-22.28 184.92-19.70Q187.96-17.12 187.96-11.76L187.96-11.76L187.96 0L179.56 0L179.56-2.88Q178.00 0.40 173.36 0.40L173.36 0.40Q170.76 0.40 168.94-0.50Q167.12-1.40 166.18-2.94Q165.24-4.48 165.24-6.40L165.24-6.40Q165.24-9.64 167.72-11.32Q170.20-13 175.24-13L175.24-13L178.88-13Q178.44-15.56 174.76-15.56L174.76-15.56Q173.28-15.56 171.76-15.10Q170.24-14.64 169.16-13.84L169.16-13.84L166.28-19.80Q168.16-20.96 170.82-21.62Q173.48-22.28 176.12-22.28L176.12-22.28ZM176.08-5.04Q177.04-5.04 177.80-5.56Q178.56-6.08 178.92-7.12L178.92-7.12L178.92-8.64L176.68-8.64Q173.92-8.64 173.92-6.80L173.92-6.80Q173.92-6.04 174.50-5.54Q175.08-5.04 176.08-5.04L176.08-5.04Z M207.08-22.28Q211.12-22.28 213.58-19.84Q216.04-17.40 216.04-12.48L216.04-12.48L216.04 0L207.00 0L207.00-10.92Q207.00-14.68 204.32-14.68L204.32-14.68Q202.80-14.68 201.86-13.62Q200.92-12.56 200.92-10.28L200.92-10.28L200.92 0L191.88 0L191.88-29.68L200.92-29.68L200.92-20.12Q203.44-22.28 207.08-22.28L207.08-22.28Z"/></g>
</svg>
</g><g opacity="1" transform="rotate(0 111.3724 272.4203)">
<svg width="130.0001" height="22" x="111.3724" y="272.4203" version="1.1" preserveAspectRatio="none" viewBox="0 0 130.0001 22">
  <rect x="0" y="0" width="130.0001" height="22" class="icon1 shapeStroke-str" style="stroke-width:0;" rx="0%" ry="0%" />
</svg>
</g></svg></svg>