<svg version="1.1" preserveAspectRatio="none" xmlns="http://www.w3.org/2000/svg" width="500" height="500" viewBox="0 0 500 500"><rect width="100%" height="100%" fill="#FFFFFF" fill-opacity="1"/><svg viewBox="29.8341 136.2548 523.6497 70.4" width="417" height="56.06190550667746" x="41.5px" y="221.969px" xmlns="http://www.w3.org/2000/svg" xmlns:xlink="http://www.w3.org/1999/xlink" preserveAspectRatio="none"><defs></defs><style>.companyName {fill:#182145;fill-opacity:1;}.icon1 {fill:#182145;fill-opacity:1;}.icon2 {fill:#E35B34;fill-opacity:1;}.icon3 {fill:#E3D454;fill-opacity:1;}.icon3-str {stroke:#E3D454;stroke-opacity:1;}.text {fill:#182145;fill-opacity:1;}</style><g opacity="1" transform="rotate(0 29.8341 136.2548)">
<svg width="125.5237" height="70.4" x="29.8341" y="136.2548" version="1.1" preserveAspectRatio="none" viewBox="20 55.131996154785156 160.0006103515625 89.73633575439453">
  <g transform="matrix(1 0 0 1 0 0)" ><g><path d="M48.152 138.543c-12-22.403-21.518-50.331-28.152-76.39 6.321 7.39 14.297 14.974 22.115 19.096 7.817 4.128 10.408 8.484 17.092 1.686 5.565-5.659 13.153-21.284 16.247-25.839 6.445 10.15 16.903 22.607 25.307 29.783 7.435-11.597 18.161-21.075 25.103-31.747 2.651 12.621 13.899 29.072 19.514 30.514 2.85.731 5.57-2.064 8.151-3.829 8.792-5.992 17.584-11.99 26.377-17.982 1.606 25.004-17.674 50.073-24.258 73.585-1.044 3.725-15.67 4.212-18.783 4.496-16.903 1.517-33.045.875-49.948 2.392-14.512 1.302-35.732.7-38.765-5.765" data-color="1" class="icon1"></path></g></g>
</svg>
</g><g opacity="1" transform="rotate(0 175.3578 188.2548)">
<svg width="159.1738" height="18.4" x="175.3578" y="188.2548" version="1.1" preserveAspectRatio="none" viewBox="1.76 -30.88 336.76 38.92">
  <g transform="matrix(1 0 0 1 0 0)" class="text"><path id="id-6izo4zJp16" d="M30.92-0.08L33.32 2.80Q31.92 4.44 30.06 5.28Q28.20 6.12 26 6.12L26 6.12Q23.12 6.12 20.72 4.82Q18.32 3.52 15.24 0.32L15.24 0.32Q11.36 0 8.28-1.94Q5.20-3.88 3.48-7.02Q1.76-10.16 1.76-14L1.76-14Q1.76-18.08 3.72-21.38Q5.68-24.68 9.12-26.54Q12.56-28.40 16.84-28.40L16.84-28.40Q21.12-28.40 24.56-26.54Q28-24.68 29.96-21.40Q31.92-18.12 31.92-14L31.92-14Q31.92-10.68 30.60-7.86Q29.28-5.04 26.92-3.06Q24.56-1.08 21.44-0.20L21.44-0.20Q22.60 1.04 23.72 1.60Q24.84 2.16 26.12 2.16L26.12 2.16Q28.88 2.16 30.92-0.08L30.92-0.08ZM7-14Q7-11.20 8.28-8.94Q9.56-6.68 11.80-5.42Q14.04-4.16 16.84-4.16L16.84-4.16Q19.64-4.16 21.88-5.42Q24.12-6.68 25.40-8.94Q26.68-11.20 26.68-14L26.68-14Q26.68-16.80 25.40-19.06Q24.12-21.32 21.88-22.58Q19.64-23.84 16.84-23.84L16.84-23.84Q14.04-23.84 11.80-22.58Q9.56-21.32 8.28-19.06Q7-16.80 7-14L7-14Z M53.84-21.36L58.84-21.36L58.84 0L54.08 0L54.08-2.72Q52.88-1.28 51.08-0.50Q49.28 0.28 47.20 0.28L47.20 0.28Q42.92 0.28 40.46-2.10Q38-4.48 38-9.16L38-9.16L38-21.36L43-21.36L43-9.84Q43-6.96 44.30-5.54Q45.60-4.12 48-4.12L48-4.12Q50.68-4.12 52.26-5.78Q53.84-7.44 53.84-10.56L53.84-10.56L53.84-21.36Z M74.76-21.60Q79.48-21.60 81.98-19.34Q84.48-17.08 84.48-12.52L84.48-12.52L84.48 0L79.76 0L79.76-2.60Q78.84-1.20 77.14-0.46Q75.44 0.28 73.04 0.28L73.04 0.28Q70.64 0.28 68.84-0.54Q67.04-1.36 66.06-2.82Q65.08-4.28 65.08-6.12L65.08-6.12Q65.08-9 67.22-10.74Q69.36-12.48 73.96-12.48L73.96-12.48L79.48-12.48L79.48-12.80Q79.48-15.04 78.14-16.24Q76.80-17.44 74.16-17.44L74.16-17.44Q72.36-17.44 70.62-16.88Q68.88-16.32 67.68-15.32L67.68-15.32L65.72-18.96Q67.40-20.24 69.76-20.92Q72.12-21.60 74.76-21.60L74.76-21.60ZM74.08-3.36Q75.96-3.36 77.42-4.22Q78.88-5.08 79.48-6.68L79.48-6.68L79.48-9.16L74.32-9.16Q70-9.16 70-6.32L70-6.32Q70-4.96 71.08-4.16Q72.16-3.36 74.08-3.36L74.08-3.36Z M92.08 0L92.08-29.68L97.08-29.68L97.08 0L92.08 0Z M104.84 0L104.84-21.36L109.84-21.36L109.84 0L104.84 0ZM107.36-24.88Q106.00-24.88 105.08-25.74Q104.16-26.60 104.16-27.88L104.16-27.88Q104.16-29.16 105.08-30.02Q106.00-30.88 107.36-30.88L107.36-30.88Q108.72-30.88 109.64-30.06Q110.56-29.24 110.56-28L110.56-28Q110.56-26.68 109.66-25.78Q108.76-24.88 107.36-24.88L107.36-24.88Z M129.04-4.72L130.44-1.16Q129.56-0.44 128.30-0.08Q127.04 0.28 125.64 0.28L125.64 0.28Q122.12 0.28 120.20-1.56Q118.28-3.40 118.28-6.92L118.28-6.92L118.28-17.20L114.76-17.20L114.76-21.20L118.28-21.20L118.28-26.08L123.28-26.08L123.28-21.20L129.00-21.20L129.00-17.20L123.28-17.20L123.28-7.04Q123.28-5.48 124.04-4.66Q124.80-3.84 126.24-3.84L126.24-3.84Q127.92-3.84 129.04-4.72L129.04-4.72Z M150.56-21.36L155.36-21.36L145.36 1.72Q143.96 5.20 141.96 6.62Q139.96 8.04 137.12 8.04L137.12 8.04Q135.52 8.04 133.96 7.52Q132.40 7 131.40 6.08L131.40 6.08L133.40 2.40Q134.12 3.08 135.10 3.48Q136.08 3.88 137.08 3.88L137.08 3.88Q138.40 3.88 139.26 3.20Q140.12 2.52 140.84 0.92L140.84 0.92L141.20 0.08L131.88-21.36L137.08-21.36L143.80-5.56L150.56-21.36Z M180.08-21.60Q184.80-21.60 187.30-19.34Q189.80-17.08 189.80-12.52L189.80-12.52L189.80 0L185.08 0L185.08-2.60Q184.16-1.20 182.46-0.46Q180.76 0.28 178.36 0.28L178.36 0.28Q175.96 0.28 174.16-0.54Q172.36-1.36 171.38-2.82Q170.40-4.28 170.40-6.12L170.40-6.12Q170.40-9 172.54-10.74Q174.68-12.48 179.28-12.48L179.28-12.48L184.80-12.48L184.80-12.80Q184.80-15.04 183.46-16.24Q182.12-17.44 179.48-17.44L179.48-17.44Q177.68-17.44 175.94-16.88Q174.20-16.32 173-15.32L173-15.32L171.04-18.96Q172.72-20.24 175.08-20.92Q177.44-21.60 180.08-21.60L180.08-21.60ZM179.40-3.36Q181.28-3.36 182.74-4.22Q184.20-5.08 184.80-6.68L184.80-6.68L184.80-9.16L179.64-9.16Q175.32-9.16 175.32-6.32L175.32-6.32Q175.32-4.96 176.40-4.16Q177.48-3.36 179.40-3.36L179.40-3.36Z M204.00 0.28Q201.40 0.28 198.92-0.40Q196.44-1.08 194.96-2.12L194.96-2.12L196.88-5.92Q198.32-4.96 200.34-4.38Q202.36-3.80 204.32-3.80L204.32-3.80Q208.80-3.80 208.80-6.16L208.80-6.16Q208.80-7.28 207.66-7.72Q206.52-8.16 204.00-8.56L204.00-8.56Q201.36-8.96 199.70-9.48Q198.04-10 196.82-11.30Q195.60-12.60 195.60-14.92L195.60-14.92Q195.60-17.96 198.14-19.78Q200.68-21.60 205.00-21.60L205.00-21.60Q207.20-21.60 209.40-21.10Q211.60-20.60 213.00-19.76L213.00-19.76L211.08-15.96Q208.36-17.56 204.96-17.56L204.96-17.56Q202.76-17.56 201.62-16.90Q200.48-16.24 200.48-15.16L200.48-15.16Q200.48-13.96 201.70-13.46Q202.92-12.96 205.48-12.52L205.48-12.52Q208.04-12.12 209.68-11.60Q211.32-11.08 212.50-9.84Q213.68-8.60 213.68-6.32L213.68-6.32Q213.68-3.32 211.08-1.52Q208.48 0.28 204.00 0.28L204.00 0.28Z M225.80 0.28Q223.20 0.28 220.72-0.40Q218.24-1.08 216.76-2.12L216.76-2.12L218.68-5.92Q220.12-4.96 222.14-4.38Q224.16-3.80 226.12-3.80L226.12-3.80Q230.60-3.80 230.60-6.16L230.60-6.16Q230.60-7.28 229.46-7.72Q228.32-8.16 225.80-8.56L225.80-8.56Q223.16-8.96 221.50-9.48Q219.84-10 218.62-11.30Q217.40-12.60 217.40-14.92L217.40-14.92Q217.40-17.96 219.94-19.78Q222.48-21.60 226.80-21.60L226.80-21.60Q229.00-21.60 231.20-21.10Q233.40-20.60 234.80-19.76L234.80-19.76L232.88-15.96Q230.16-17.56 226.76-17.56L226.76-17.56Q224.56-17.56 223.42-16.90Q222.28-16.24 222.28-15.16L222.28-15.16Q222.28-13.96 223.50-13.46Q224.72-12.96 227.28-12.52L227.28-12.52Q229.84-12.12 231.48-11.60Q233.12-11.08 234.30-9.84Q235.48-8.60 235.48-6.32L235.48-6.32Q235.48-3.32 232.88-1.52Q230.28 0.28 225.80 0.28L225.80 0.28Z M256.68-21.36L261.68-21.36L261.68 0L256.92 0L256.92-2.72Q255.72-1.28 253.92-0.50Q252.12 0.28 250.04 0.28L250.04 0.28Q245.76 0.28 243.30-2.10Q240.84-4.48 240.84-9.16L240.84-9.16L240.84-21.36L245.84-21.36L245.84-9.84Q245.84-6.96 247.14-5.54Q248.44-4.12 250.84-4.12L250.84-4.12Q253.52-4.12 255.10-5.78Q256.68-7.44 256.68-10.56L256.68-10.56L256.68-21.36Z M274.20-18.24Q276.36-21.60 281.80-21.60L281.80-21.60L281.80-16.84Q281.16-16.96 280.64-16.96L280.64-16.96Q277.72-16.96 276.08-15.26Q274.44-13.56 274.44-10.36L274.44-10.36L274.44 0L269.44 0L269.44-21.36L274.20-21.36L274.20-18.24Z M307.12-10.56Q307.12-10.04 307.04-9.08L307.04-9.08L290.28-9.08Q290.72-6.72 292.58-5.34Q294.44-3.96 297.20-3.96L297.20-3.96Q300.72-3.96 303.00-6.28L303.00-6.28L305.68-3.20Q304.24-1.48 302.04-0.60Q299.84 0.28 297.08 0.28L297.08 0.28Q293.56 0.28 290.88-1.12Q288.20-2.52 286.74-5.02Q285.28-7.52 285.28-10.68L285.28-10.68Q285.28-13.80 286.70-16.30Q288.12-18.80 290.64-20.20Q293.16-21.60 296.32-21.60L296.32-21.60Q299.44-21.60 301.90-20.22Q304.36-18.84 305.74-16.34Q307.12-13.84 307.12-10.56L307.12-10.56ZM296.32-17.60Q293.92-17.60 292.26-16.18Q290.60-14.76 290.24-12.40L290.24-12.40L302.36-12.40Q302.04-14.72 300.40-16.16Q298.76-17.60 296.32-17.60L296.32-17.60Z M329.04-29.68L334.04-29.68L334.04 0L329.24 0L329.24-2.76Q328.00-1.24 326.18-0.48Q324.36 0.28 322.16 0.28L322.16 0.28Q319.08 0.28 316.62-1.08Q314.16-2.44 312.76-4.94Q311.36-7.44 311.36-10.68L311.36-10.68Q311.36-13.92 312.76-16.40Q314.16-18.88 316.62-20.24Q319.08-21.60 322.16-21.60L322.16-21.60Q324.28-21.60 326.04-20.88Q327.80-20.16 329.04-18.72L329.04-18.72L329.04-29.68ZM322.76-4Q324.56-4 326.00-4.82Q327.44-5.64 328.28-7.16Q329.12-8.68 329.12-10.68L329.12-10.68Q329.12-12.68 328.28-14.20Q327.44-15.72 326.00-16.54Q324.56-17.36 322.76-17.36L322.76-17.36Q320.96-17.36 319.52-16.54Q318.08-15.72 317.24-14.20Q316.40-12.68 316.40-10.68L316.40-10.68Q316.40-8.68 317.24-7.16Q318.08-5.64 319.52-4.82Q320.96-4 322.76-4L322.76-4Z"/></g>
</svg>
</g><g opacity="1" transform="rotate(0 175.3578 136.2548)">
<svg width="378.126" height="40" x="175.3578" y="136.2548" version="1.1" preserveAspectRatio="none" viewBox="3.32 -28 269.2 28.48">
  <g transform="matrix(1 0 0 1 0 0)" class="companyName"><path id="id-D6z1nYkh11" d="M22.48 0L13.52-11L9.76-7.08L9.76 0L3.32 0L3.32-28L9.76-28L9.76-14.92L22.16-28L29.36-28L17.76-15.52L30.04 0L22.48 0Z M52.12-28L58.60-28L58.60 0L52.12 0L52.12-11.48L39.40-11.48L39.40 0L32.92 0L32.92-28L39.40-28L39.40-16.96L52.12-16.96L52.12-28Z M86.16 0L83.68-6L70.68-6L68.20 0L61.56 0L74.04-28L80.44-28L92.96 0L86.16 0ZM72.76-10.92L81.64-10.92L77.20-21.64L72.76-10.92Z M95.88 0L95.88-28L102.36-28L102.36-5.28L116.40-5.28L116.40 0L95.88 0Z M120.04 0L120.04-28L126.52-28L126.52 0L120.04 0Z M133.16 0L133.16-28L139.64-28L139.64-5.28L153.68-5.28L153.68 0L133.16 0Z M169.40 0.48Q163.40 0.48 160.06-2.84Q156.72-6.16 156.72-12.32L156.72-12.32L156.72-28L163.20-28L163.20-12.56Q163.20-5.04 169.44-5.04L169.44-5.04Q172.48-5.04 174.08-6.86Q175.68-8.68 175.68-12.56L175.68-12.56L175.68-28L182.08-28L182.08-12.32Q182.08-6.16 178.74-2.84Q175.40 0.48 169.40 0.48L169.40 0.48Z M188.48 0L188.48-28L194.96-28L194.96-5.28L209-5.28L209 0L188.48 0Z M233.80 0L231.32-6L218.32-6L215.84 0L209.20 0L221.68-28L228.08-28L240.60 0L233.80 0ZM220.40-10.92L229.28-10.92L224.84-21.64L220.40-10.92Z M262.72-28L269.20-28L269.20 0L262.72 0L262.72-11.48L250-11.48L250 0L243.52 0L243.52-28L250-28L250-16.96L262.72-16.96L262.72-28Z"/></g>
</svg>
</g></svg></svg>